<svg width="416" height="242" viewBox="0 0 416 242" fill="none" xmlns="http://www.w3.org/2000/svg">
<path d="M182.91 87.2369L185.959 0L189.009 87.2369L185.959 174.474L182.91 87.2369Z" fill="url(#paint0_linear_5_55)"/>
<path d="M177.057 174.475L174.007 93.6935L177.057 12.9122L180.106 93.6935L177.057 174.475Z" fill="url(#paint1_linear_5_55)"/>
<path d="M168.153 174.475L165.103 102.312L168.153 30.1493L168.153 29.2166L171.202 102.312L168.153 174.475Z" fill="url(#paint2_linear_5_55)"/>
<path d="M159.253 174.475L156.203 111.353L159.253 48.2311L162.302 111.353L159.253 174.475Z" fill="url(#paint3_linear_5_55)"/>
<path d="M150.349 174.475L147.299 118.914L150.349 63.354L153.398 118.914L150.349 174.475Z" fill="url(#paint4_linear_5_55)"/>
<path d="M141.444 174.475L138.395 127.133L141.444 79.792L144.494 127.133L141.444 174.475Z" fill="url(#paint5_linear_5_55)"/>
<path d="M132.542 174.475L129.493 135.846L132.542 97.2163L135.592 135.846L132.542 174.475Z" fill="url(#paint6_linear_5_55)"/>
<path d="M233.522 87.2369L230.473 0L227.423 87.2369L230.473 174.474L233.522 87.2369Z" fill="url(#paint7_linear_5_55)"/>
<path d="M239.375 174.475L242.424 93.6935L239.375 12.9122L236.325 93.6935L239.375 174.475Z" fill="url(#paint8_linear_5_55)"/>
<path d="M248.279 174.475L251.328 102.312L248.279 30.1493L248.279 29.2166L245.229 102.312L248.279 174.475Z" fill="url(#paint9_linear_5_55)"/>
<path d="M257.18 174.475L260.229 111.353L257.18 48.2311L254.13 111.353L257.18 174.475Z" fill="url(#paint10_linear_5_55)"/>
<path d="M266.085 174.475L269.135 118.914L266.085 63.354L263.036 118.914L266.085 174.475Z" fill="url(#paint11_linear_5_55)"/>
<path d="M274.989 174.475L278.039 127.133L274.989 79.792L271.94 127.133L274.989 174.475Z" fill="url(#paint12_linear_5_55)"/>
<path d="M283.889 174.475L286.939 135.846L283.889 97.2163L280.84 135.846L283.889 174.475Z" fill="url(#paint13_linear_5_55)"/>
<path d="M9.67236 242C7.77994 242 5.94593 241.731 4.17033 241.194C2.41809 240.656 1.02798 239.943 0 239.055L1.57702 235.514C2.58163 236.308 3.8082 236.963 5.25672 237.477C6.7286 237.968 8.20048 238.213 9.67236 238.213C11.4947 238.213 12.8498 237.921 13.7376 237.337C14.6487 236.753 15.1043 235.981 15.1043 235.023C15.1043 234.322 14.8473 233.749 14.3333 233.305C13.8427 232.837 13.2119 232.475 12.4409 232.218C11.6699 231.961 10.6186 231.669 9.28687 231.342C7.41781 230.897 5.89921 230.453 4.73105 230.009C3.58625 229.565 2.59331 228.876 1.75224 227.941C0.934528 226.982 0.525672 225.697 0.525672 224.084C0.525672 222.728 0.887801 221.501 1.61206 220.403C2.35968 219.281 3.46943 218.393 4.94132 217.738C6.43656 217.084 8.25889 216.756 10.4083 216.756C11.9035 216.756 13.3754 216.943 14.8239 217.317C16.2725 217.691 17.5224 218.229 18.5737 218.93L17.1369 222.471C16.0622 221.84 14.9408 221.361 13.7726 221.034C12.6044 220.706 11.4713 220.543 10.3733 220.543C8.57429 220.543 7.23091 220.847 6.34311 221.454C5.47867 222.062 5.04645 222.869 5.04645 223.874C5.04645 224.575 5.29176 225.148 5.78239 225.592C6.29638 226.036 6.93887 226.386 7.70985 226.643C8.48084 226.901 9.53218 227.193 10.8639 227.52C12.6862 227.941 14.1815 228.385 15.3496 228.852C16.5178 229.296 17.5107 229.986 18.3284 230.921C19.1695 231.856 19.59 233.118 19.59 234.707C19.59 236.063 19.2162 237.29 18.4686 238.389C17.7443 239.487 16.6346 240.364 15.1393 241.018C13.6441 241.673 11.8218 242 9.67236 242Z" fill="url(#paint14_linear_5_55)"/>
<path d="M42.506 237.828V241.649H24.1075V217.107H42.0154V220.929H28.6634V227.31H40.5085V231.061H28.6634V237.828H42.506Z" fill="url(#paint15_linear_5_55)"/>
<path d="M69.6712 217.107L58.9826 241.649H54.4968L43.7731 217.107H48.7144L56.8799 236.04L65.1154 217.107H69.6712Z" fill="url(#paint16_linear_5_55)"/>
<path d="M90.6584 237.828V241.649H72.2599V217.107H90.1678V220.929H76.8157V227.31H88.6609V231.061H76.8157V237.828H90.6584Z" fill="url(#paint17_linear_5_55)"/>
<path d="M117.535 217.107V241.649H113.785L100.258 225.031V241.649H95.7372V217.107H99.487L113.014 233.726V217.107H117.535Z" fill="url(#paint18_linear_5_55)"/>
<path d="M150.545 229.098H154.856V238.88C153.594 239.885 152.122 240.656 150.44 241.194C148.758 241.731 147.029 242 145.253 242C142.753 242 140.499 241.462 138.49 240.387C136.48 239.289 134.903 237.781 133.759 235.864C132.614 233.948 132.041 231.786 132.041 229.378C132.041 226.971 132.614 224.809 133.759 222.892C134.903 220.975 136.48 219.479 138.49 218.404C140.522 217.306 142.8 216.756 145.323 216.756C147.379 216.756 149.248 217.095 150.931 217.773C152.613 218.451 154.026 219.444 155.171 220.753L152.297 223.558C150.428 221.688 148.174 220.753 145.534 220.753C143.805 220.753 142.263 221.116 140.908 221.84C139.576 222.565 138.525 223.581 137.754 224.89C137.006 226.199 136.632 227.695 136.632 229.378C136.632 231.014 137.006 232.487 137.754 233.796C138.525 235.105 139.576 236.133 140.908 236.881C142.263 237.629 143.793 238.003 145.499 238.003C147.414 238.003 149.097 237.582 150.545 236.741V229.098Z" fill="url(#paint19_linear_5_55)"/>
<path d="M172.324 242C169.824 242 167.57 241.462 165.56 240.387C163.551 239.289 161.974 237.781 160.829 235.864C159.685 233.924 159.112 231.762 159.112 229.378C159.112 226.994 159.685 224.844 160.829 222.927C161.974 220.987 163.551 219.479 165.56 218.404C167.57 217.306 169.824 216.756 172.324 216.756C174.824 216.756 177.078 217.306 179.088 218.404C181.097 219.479 182.674 220.975 183.819 222.892C184.963 224.809 185.536 226.971 185.536 229.378C185.536 231.786 184.963 233.948 183.819 235.864C182.674 237.781 181.097 239.289 179.088 240.387C177.078 241.462 174.824 242 172.324 242ZM172.324 238.003C173.959 238.003 175.431 237.641 176.74 236.916C178.048 236.168 179.076 235.14 179.824 233.831C180.571 232.499 180.945 231.014 180.945 229.378C180.945 227.742 180.571 226.269 179.824 224.961C179.076 223.628 178.048 222.6 176.74 221.875C175.431 221.127 173.959 220.753 172.324 220.753C170.689 220.753 169.217 221.127 167.908 221.875C166.6 222.6 165.572 223.628 164.824 224.961C164.077 226.269 163.703 227.742 163.703 229.378C163.703 231.014 164.077 232.499 164.824 233.831C165.572 235.14 166.6 236.168 167.908 236.916C169.217 237.641 170.689 238.003 172.324 238.003Z" fill="url(#paint20_linear_5_55)"/>
<path d="M190.365 217.107H194.921V237.793H207.747V241.649H190.365V217.107Z" fill="url(#paint21_linear_5_55)"/>
<path d="M211.344 217.107H222.068C224.684 217.107 227.009 217.621 229.042 218.65C231.074 219.655 232.651 221.092 233.773 222.962C234.894 224.809 235.455 226.947 235.455 229.378C235.455 231.809 234.894 233.959 233.773 235.829C232.651 237.676 231.074 239.113 229.042 240.142C227.009 241.147 224.684 241.649 222.068 241.649H211.344V217.107ZM221.857 237.793C223.656 237.793 225.233 237.454 226.588 236.776C227.967 236.075 229.018 235.093 229.742 233.831C230.49 232.545 230.864 231.061 230.864 229.378C230.864 227.695 230.49 226.223 229.742 224.961C229.018 223.675 227.967 222.693 226.588 222.015C225.233 221.314 223.656 220.964 221.857 220.964H215.9V237.793H221.857Z" fill="url(#paint22_linear_5_55)"/>
<path d="M258.695 237.828V241.649H240.297V217.107H258.205V220.929H244.853V227.31H256.698V231.061H244.853V237.828H258.695Z" fill="url(#paint23_linear_5_55)"/>
<path d="M285.572 217.107V241.649H281.822L268.295 225.031V241.649H263.774V217.107H267.524L281.051 233.726V217.107H285.572Z" fill="url(#paint24_linear_5_55)"/>
<path d="M318.582 229.098H322.893V238.88C321.631 239.885 320.159 240.656 318.477 241.194C316.795 241.731 315.066 242 313.29 242C310.79 242 308.536 241.462 306.527 240.387C304.517 239.289 302.94 237.781 301.796 235.864C300.651 233.948 300.078 231.786 300.078 229.378C300.078 226.971 300.651 224.809 301.796 222.892C302.94 220.975 304.517 219.479 306.527 218.404C308.559 217.306 310.837 216.756 313.36 216.756C315.416 216.756 317.285 217.095 318.968 217.773C320.65 218.451 322.063 219.444 323.208 220.753L320.334 223.558C318.465 221.688 316.211 220.753 313.571 220.753C311.842 220.753 310.3 221.116 308.945 221.84C307.613 222.565 306.562 223.581 305.791 224.89C305.043 226.199 304.669 227.695 304.669 229.378C304.669 231.014 305.043 232.487 305.791 233.796C306.562 235.105 307.613 236.133 308.945 236.881C310.3 237.629 311.83 238.003 313.536 238.003C315.451 238.003 317.134 237.582 318.582 236.741V229.098Z" fill="url(#paint25_linear_5_55)"/>
<path d="M344.812 235.97H332.546L330.128 241.649H325.432L336.471 217.107H340.957L352.031 241.649H347.265L344.812 235.97ZM343.305 232.393L338.679 221.665L334.088 232.393H343.305Z" fill="url(#paint26_linear_5_55)"/>
<path d="M358.895 220.964H350.765V217.107H371.581V220.964H363.451V241.649H358.895V220.964Z" fill="url(#paint27_linear_5_55)"/>
<path d="M393.399 237.828V241.649H375V217.107H392.908V220.929H379.556V227.31H391.401V231.061H379.556V237.828H393.399Z" fill="url(#paint28_linear_5_55)"/>
<path d="M406.082 242C404.19 242 402.356 241.731 400.58 241.194C398.828 240.656 397.438 239.943 396.41 239.055L397.987 235.514C398.992 236.308 400.218 236.963 401.667 237.477C403.139 237.968 404.61 238.213 406.082 238.213C407.905 238.213 409.26 237.921 410.148 237.337C411.059 236.753 411.514 235.981 411.514 235.023C411.514 234.322 411.257 233.749 410.743 233.305C410.253 232.837 409.622 232.475 408.851 232.218C408.08 231.961 407.029 231.669 405.697 231.342C403.828 230.897 402.309 230.453 401.141 230.009C399.996 229.565 399.003 228.876 398.162 227.941C397.344 226.982 396.936 225.697 396.936 224.084C396.936 222.728 397.298 221.501 398.022 220.403C398.77 219.281 399.879 218.393 401.351 217.738C402.847 217.084 404.669 216.756 406.818 216.756C408.314 216.756 409.785 216.943 411.234 217.317C412.682 217.691 413.932 218.229 414.984 218.93L413.547 222.471C412.472 221.84 411.351 221.361 410.183 221.034C409.014 220.706 407.881 220.543 406.783 220.543C404.984 220.543 403.641 220.847 402.753 221.454C401.889 222.062 401.456 222.869 401.456 223.874C401.456 224.575 401.702 225.148 402.192 225.592C402.706 226.036 403.349 226.386 404.12 226.643C404.891 226.901 405.942 227.193 407.274 227.52C409.096 227.941 410.591 228.385 411.76 228.852C412.928 229.296 413.921 229.986 414.738 230.921C415.579 231.856 416 233.118 416 234.707C416 236.063 415.626 237.29 414.879 238.389C414.154 239.487 413.045 240.364 411.549 241.018C410.054 241.673 408.232 242 406.082 242Z" fill="url(#paint29_linear_5_55)"/>
<defs>
<linearGradient id="paint0_linear_5_55" x1="1.08603e-06" y1="121" x2="416" y2="121" gradientUnits="userSpaceOnUse">
<stop stop-color="#B17451"/>
<stop offset="0.2" stop-color="#BA8157"/>
<stop offset="0.4" stop-color="#C79562"/>
<stop offset="0.6" stop-color="#DAB06F"/>
<stop offset="0.8" stop-color="#BB9560"/>
<stop offset="1" stop-color="#886F53"/>
</linearGradient>
<linearGradient id="paint1_linear_5_55" x1="1.08603e-06" y1="121" x2="416" y2="121" gradientUnits="userSpaceOnUse">
<stop stop-color="#B17451"/>
<stop offset="0.2" stop-color="#BA8157"/>
<stop offset="0.4" stop-color="#C79562"/>
<stop offset="0.6" stop-color="#DAB06F"/>
<stop offset="0.8" stop-color="#BB9560"/>
<stop offset="1" stop-color="#886F53"/>
</linearGradient>
<linearGradient id="paint2_linear_5_55" x1="1.08603e-06" y1="121" x2="416" y2="121" gradientUnits="userSpaceOnUse">
<stop stop-color="#B17451"/>
<stop offset="0.2" stop-color="#BA8157"/>
<stop offset="0.4" stop-color="#C79562"/>
<stop offset="0.6" stop-color="#DAB06F"/>
<stop offset="0.8" stop-color="#BB9560"/>
<stop offset="1" stop-color="#886F53"/>
</linearGradient>
<linearGradient id="paint3_linear_5_55" x1="1.08603e-06" y1="121" x2="416" y2="121" gradientUnits="userSpaceOnUse">
<stop stop-color="#B17451"/>
<stop offset="0.2" stop-color="#BA8157"/>
<stop offset="0.4" stop-color="#C79562"/>
<stop offset="0.6" stop-color="#DAB06F"/>
<stop offset="0.8" stop-color="#BB9560"/>
<stop offset="1" stop-color="#886F53"/>
</linearGradient>
<linearGradient id="paint4_linear_5_55" x1="1.08603e-06" y1="121" x2="416" y2="121" gradientUnits="userSpaceOnUse">
<stop stop-color="#B17451"/>
<stop offset="0.2" stop-color="#BA8157"/>
<stop offset="0.4" stop-color="#C79562"/>
<stop offset="0.6" stop-color="#DAB06F"/>
<stop offset="0.8" stop-color="#BB9560"/>
<stop offset="1" stop-color="#886F53"/>
</linearGradient>
<linearGradient id="paint5_linear_5_55" x1="1.08603e-06" y1="121" x2="416" y2="121" gradientUnits="userSpaceOnUse">
<stop stop-color="#B17451"/>
<stop offset="0.2" stop-color="#BA8157"/>
<stop offset="0.4" stop-color="#C79562"/>
<stop offset="0.6" stop-color="#DAB06F"/>
<stop offset="0.8" stop-color="#BB9560"/>
<stop offset="1" stop-color="#886F53"/>
</linearGradient>
<linearGradient id="paint6_linear_5_55" x1="1.08603e-06" y1="121" x2="416" y2="121" gradientUnits="userSpaceOnUse">
<stop stop-color="#B17451"/>
<stop offset="0.2" stop-color="#BA8157"/>
<stop offset="0.4" stop-color="#C79562"/>
<stop offset="0.6" stop-color="#DAB06F"/>
<stop offset="0.8" stop-color="#BB9560"/>
<stop offset="1" stop-color="#886F53"/>
</linearGradient>
<linearGradient id="paint7_linear_5_55" x1="1.08603e-06" y1="121" x2="416" y2="121" gradientUnits="userSpaceOnUse">
<stop stop-color="#B17451"/>
<stop offset="0.2" stop-color="#BA8157"/>
<stop offset="0.4" stop-color="#C79562"/>
<stop offset="0.6" stop-color="#DAB06F"/>
<stop offset="0.8" stop-color="#BB9560"/>
<stop offset="1" stop-color="#886F53"/>
</linearGradient>
<linearGradient id="paint8_linear_5_55" x1="1.08603e-06" y1="121" x2="416" y2="121" gradientUnits="userSpaceOnUse">
<stop stop-color="#B17451"/>
<stop offset="0.2" stop-color="#BA8157"/>
<stop offset="0.4" stop-color="#C79562"/>
<stop offset="0.6" stop-color="#DAB06F"/>
<stop offset="0.8" stop-color="#BB9560"/>
<stop offset="1" stop-color="#886F53"/>
</linearGradient>
<linearGradient id="paint9_linear_5_55" x1="1.08603e-06" y1="121" x2="416" y2="121" gradientUnits="userSpaceOnUse">
<stop stop-color="#B17451"/>
<stop offset="0.2" stop-color="#BA8157"/>
<stop offset="0.4" stop-color="#C79562"/>
<stop offset="0.6" stop-color="#DAB06F"/>
<stop offset="0.8" stop-color="#BB9560"/>
<stop offset="1" stop-color="#886F53"/>
</linearGradient>
<linearGradient id="paint10_linear_5_55" x1="1.08603e-06" y1="121" x2="416" y2="121" gradientUnits="userSpaceOnUse">
<stop stop-color="#B17451"/>
<stop offset="0.2" stop-color="#BA8157"/>
<stop offset="0.4" stop-color="#C79562"/>
<stop offset="0.6" stop-color="#DAB06F"/>
<stop offset="0.8" stop-color="#BB9560"/>
<stop offset="1" stop-color="#886F53"/>
</linearGradient>
<linearGradient id="paint11_linear_5_55" x1="1.08603e-06" y1="121" x2="416" y2="121" gradientUnits="userSpaceOnUse">
<stop stop-color="#B17451"/>
<stop offset="0.2" stop-color="#BA8157"/>
<stop offset="0.4" stop-color="#C79562"/>
<stop offset="0.6" stop-color="#DAB06F"/>
<stop offset="0.8" stop-color="#BB9560"/>
<stop offset="1" stop-color="#886F53"/>
</linearGradient>
<linearGradient id="paint12_linear_5_55" x1="1.08603e-06" y1="121" x2="416" y2="121" gradientUnits="userSpaceOnUse">
<stop stop-color="#B17451"/>
<stop offset="0.2" stop-color="#BA8157"/>
<stop offset="0.4" stop-color="#C79562"/>
<stop offset="0.6" stop-color="#DAB06F"/>
<stop offset="0.8" stop-color="#BB9560"/>
<stop offset="1" stop-color="#886F53"/>
</linearGradient>
<linearGradient id="paint13_linear_5_55" x1="1.08603e-06" y1="121" x2="416" y2="121" gradientUnits="userSpaceOnUse">
<stop stop-color="#B17451"/>
<stop offset="0.2" stop-color="#BA8157"/>
<stop offset="0.4" stop-color="#C79562"/>
<stop offset="0.6" stop-color="#DAB06F"/>
<stop offset="0.8" stop-color="#BB9560"/>
<stop offset="1" stop-color="#886F53"/>
</linearGradient>
<linearGradient id="paint14_linear_5_55" x1="1.08603e-06" y1="121" x2="416" y2="121" gradientUnits="userSpaceOnUse">
<stop stop-color="#B17451"/>
<stop offset="0.2" stop-color="#BA8157"/>
<stop offset="0.4" stop-color="#C79562"/>
<stop offset="0.6" stop-color="#DAB06F"/>
<stop offset="0.8" stop-color="#BB9560"/>
<stop offset="1" stop-color="#886F53"/>
</linearGradient>
<linearGradient id="paint15_linear_5_55" x1="1.08603e-06" y1="121" x2="416" y2="121" gradientUnits="userSpaceOnUse">
<stop stop-color="#B17451"/>
<stop offset="0.2" stop-color="#BA8157"/>
<stop offset="0.4" stop-color="#C79562"/>
<stop offset="0.6" stop-color="#DAB06F"/>
<stop offset="0.8" stop-color="#BB9560"/>
<stop offset="1" stop-color="#886F53"/>
</linearGradient>
<linearGradient id="paint16_linear_5_55" x1="1.08603e-06" y1="121" x2="416" y2="121" gradientUnits="userSpaceOnUse">
<stop stop-color="#B17451"/>
<stop offset="0.2" stop-color="#BA8157"/>
<stop offset="0.4" stop-color="#C79562"/>
<stop offset="0.6" stop-color="#DAB06F"/>
<stop offset="0.8" stop-color="#BB9560"/>
<stop offset="1" stop-color="#886F53"/>
</linearGradient>
<linearGradient id="paint17_linear_5_55" x1="1.08603e-06" y1="121" x2="416" y2="121" gradientUnits="userSpaceOnUse">
<stop stop-color="#B17451"/>
<stop offset="0.2" stop-color="#BA8157"/>
<stop offset="0.4" stop-color="#C79562"/>
<stop offset="0.6" stop-color="#DAB06F"/>
<stop offset="0.8" stop-color="#BB9560"/>
<stop offset="1" stop-color="#886F53"/>
</linearGradient>
<linearGradient id="paint18_linear_5_55" x1="1.08603e-06" y1="121" x2="416" y2="121" gradientUnits="userSpaceOnUse">
<stop stop-color="#B17451"/>
<stop offset="0.2" stop-color="#BA8157"/>
<stop offset="0.4" stop-color="#C79562"/>
<stop offset="0.6" stop-color="#DAB06F"/>
<stop offset="0.8" stop-color="#BB9560"/>
<stop offset="1" stop-color="#886F53"/>
</linearGradient>
<linearGradient id="paint19_linear_5_55" x1="1.08603e-06" y1="121" x2="416" y2="121" gradientUnits="userSpaceOnUse">
<stop stop-color="#B17451"/>
<stop offset="0.2" stop-color="#BA8157"/>
<stop offset="0.4" stop-color="#C79562"/>
<stop offset="0.6" stop-color="#DAB06F"/>
<stop offset="0.8" stop-color="#BB9560"/>
<stop offset="1" stop-color="#886F53"/>
</linearGradient>
<linearGradient id="paint20_linear_5_55" x1="1.08603e-06" y1="121" x2="416" y2="121" gradientUnits="userSpaceOnUse">
<stop stop-color="#B17451"/>
<stop offset="0.2" stop-color="#BA8157"/>
<stop offset="0.4" stop-color="#C79562"/>
<stop offset="0.6" stop-color="#DAB06F"/>
<stop offset="0.8" stop-color="#BB9560"/>
<stop offset="1" stop-color="#886F53"/>
</linearGradient>
<linearGradient id="paint21_linear_5_55" x1="1.08603e-06" y1="121" x2="416" y2="121" gradientUnits="userSpaceOnUse">
<stop stop-color="#B17451"/>
<stop offset="0.2" stop-color="#BA8157"/>
<stop offset="0.4" stop-color="#C79562"/>
<stop offset="0.6" stop-color="#DAB06F"/>
<stop offset="0.8" stop-color="#BB9560"/>
<stop offset="1" stop-color="#886F53"/>
</linearGradient>
<linearGradient id="paint22_linear_5_55" x1="1.08603e-06" y1="121" x2="416" y2="121" gradientUnits="userSpaceOnUse">
<stop stop-color="#B17451"/>
<stop offset="0.2" stop-color="#BA8157"/>
<stop offset="0.4" stop-color="#C79562"/>
<stop offset="0.6" stop-color="#DAB06F"/>
<stop offset="0.8" stop-color="#BB9560"/>
<stop offset="1" stop-color="#886F53"/>
</linearGradient>
<linearGradient id="paint23_linear_5_55" x1="1.08603e-06" y1="121" x2="416" y2="121" gradientUnits="userSpaceOnUse">
<stop stop-color="#B17451"/>
<stop offset="0.2" stop-color="#BA8157"/>
<stop offset="0.4" stop-color="#C79562"/>
<stop offset="0.6" stop-color="#DAB06F"/>
<stop offset="0.8" stop-color="#BB9560"/>
<stop offset="1" stop-color="#886F53"/>
</linearGradient>
<linearGradient id="paint24_linear_5_55" x1="1.08603e-06" y1="121" x2="416" y2="121" gradientUnits="userSpaceOnUse">
<stop stop-color="#B17451"/>
<stop offset="0.2" stop-color="#BA8157"/>
<stop offset="0.4" stop-color="#C79562"/>
<stop offset="0.6" stop-color="#DAB06F"/>
<stop offset="0.8" stop-color="#BB9560"/>
<stop offset="1" stop-color="#886F53"/>
</linearGradient>
<linearGradient id="paint25_linear_5_55" x1="1.08603e-06" y1="121" x2="416" y2="121" gradientUnits="userSpaceOnUse">
<stop stop-color="#B17451"/>
<stop offset="0.2" stop-color="#BA8157"/>
<stop offset="0.4" stop-color="#C79562"/>
<stop offset="0.6" stop-color="#DAB06F"/>
<stop offset="0.8" stop-color="#BB9560"/>
<stop offset="1" stop-color="#886F53"/>
</linearGradient>
<linearGradient id="paint26_linear_5_55" x1="1.08603e-06" y1="121" x2="416" y2="121" gradientUnits="userSpaceOnUse">
<stop stop-color="#B17451"/>
<stop offset="0.2" stop-color="#BA8157"/>
<stop offset="0.4" stop-color="#C79562"/>
<stop offset="0.6" stop-color="#DAB06F"/>
<stop offset="0.8" stop-color="#BB9560"/>
<stop offset="1" stop-color="#886F53"/>
</linearGradient>
<linearGradient id="paint27_linear_5_55" x1="1.08603e-06" y1="121" x2="416" y2="121" gradientUnits="userSpaceOnUse">
<stop stop-color="#B17451"/>
<stop offset="0.2" stop-color="#BA8157"/>
<stop offset="0.4" stop-color="#C79562"/>
<stop offset="0.6" stop-color="#DAB06F"/>
<stop offset="0.8" stop-color="#BB9560"/>
<stop offset="1" stop-color="#886F53"/>
</linearGradient>
<linearGradient id="paint28_linear_5_55" x1="1.08603e-06" y1="121" x2="416" y2="121" gradientUnits="userSpaceOnUse">
<stop stop-color="#B17451"/>
<stop offset="0.2" stop-color="#BA8157"/>
<stop offset="0.4" stop-color="#C79562"/>
<stop offset="0.6" stop-color="#DAB06F"/>
<stop offset="0.8" stop-color="#BB9560"/>
<stop offset="1" stop-color="#886F53"/>
</linearGradient>
<linearGradient id="paint29_linear_5_55" x1="1.08603e-06" y1="121" x2="416" y2="121" gradientUnits="userSpaceOnUse">
<stop stop-color="#B17451"/>
<stop offset="0.2" stop-color="#BA8157"/>
<stop offset="0.4" stop-color="#C79562"/>
<stop offset="0.6" stop-color="#DAB06F"/>
<stop offset="0.8" stop-color="#BB9560"/>
<stop offset="1" stop-color="#886F53"/>
</linearGradient>
</defs>
</svg>
