<svg width="70" height="28" viewBox="0 0 70 28" fill="none" xmlns="http://www.w3.org/2000/svg">
<path d="M10.8517 28C8.72854 28 6.67091 27.7019 4.67881 27.1056C2.71292 26.5093 1.15332 25.7185 0 24.7333L1.7693 20.8056C2.89641 21.687 4.27253 22.413 5.89766 22.9833C7.549 23.5278 9.20035 23.8 10.8517 23.8C12.8962 23.8 14.4165 23.4759 15.4126 22.8278C16.4348 22.1796 16.9459 21.3241 16.9459 20.2611C16.9459 19.4833 16.6576 18.8481 16.081 18.3556C15.5305 17.837 14.8228 17.4352 13.9578 17.15C13.0928 16.8648 11.9133 16.5407 10.4192 16.1778C8.32225 15.6852 6.61848 15.1926 5.30789 14.7C4.02351 14.2074 2.90951 13.4426 1.96589 12.4056C1.04847 11.3426 0.589766 9.91667 0.589766 8.12778C0.589766 6.62407 0.996049 5.26296 1.80862 4.04445C2.64739 2.8 3.89246 1.81481 5.5438 1.08889C7.22136 0.362963 9.26588 0 11.6774 0C13.3549 0 15.0063 0.207408 16.6314 0.622223C18.2565 1.03704 19.6589 1.63333 20.8384 2.41111L19.2264 6.33889C18.0206 5.63889 16.7625 5.10741 15.4519 4.74445C14.1413 4.38148 12.87 4.2 11.6381 4.2C9.61974 4.2 8.11256 4.53704 7.11651 5.21111C6.14667 5.88519 5.66175 6.77963 5.66175 7.89444C5.66175 8.67222 5.93698 9.30741 6.48743 9.8C7.06409 10.2926 7.78491 10.6815 8.6499 10.9667C9.51489 11.2519 10.6944 11.5759 12.1885 11.9389C14.233 12.4056 15.9106 12.8981 17.2212 13.4167C18.5318 13.9093 19.6458 14.6741 20.5632 15.7111C21.5068 16.7481 21.9786 18.1481 21.9786 19.9111C21.9786 21.4148 21.5592 22.7759 20.7204 23.9944C19.9079 25.213 18.6628 26.1852 16.9853 26.9111C15.3077 27.637 13.2632 28 10.8517 28Z" fill="url(#paint0_linear_11_136)"/>
<path d="M40.1397 13.6889H44.9758V24.5389C43.5604 25.6537 41.909 26.5093 40.0218 27.1056C38.1345 27.7019 36.1948 28 34.2027 28C31.3981 28 28.8686 27.4037 26.6144 26.2111C24.3602 24.9926 22.5909 23.3204 21.3065 21.1944C20.0221 19.0685 19.38 16.6704 19.38 14C19.38 11.3296 20.0221 8.93148 21.3065 6.80556C22.5909 4.67963 24.3602 3.02037 26.6144 1.82778C28.8948 0.609259 31.4505 0 34.2814 0C36.588 0 38.685 0.375926 40.5722 1.12778C42.4595 1.87963 44.0453 2.98148 45.3297 4.43333L42.1056 7.54444C40.0087 5.47037 37.4792 4.43333 34.5173 4.43333C32.5776 4.43333 30.8476 4.83519 29.3273 5.63889C27.8333 6.44259 26.6537 7.57037 25.7887 9.02222C24.95 10.4741 24.5306 12.1333 24.5306 14C24.5306 15.8148 24.95 17.4481 25.7887 18.9C26.6537 20.3519 27.8333 21.4926 29.3273 22.3222C30.8476 23.1519 32.5645 23.5667 34.478 23.5667C36.6273 23.5667 38.5146 23.1 40.1397 22.1667V13.6889Z" fill="url(#paint1_linear_11_136)"/>
<path d="M64.8101 13.6889H69.6461V24.5389C68.2307 25.6537 66.5794 26.5093 64.6921 27.1056C62.8049 27.7019 60.8652 28 58.8731 28C56.0684 28 53.539 27.4037 51.2848 26.2111C49.0305 24.9926 47.2612 23.3204 45.9769 21.1944C44.6925 19.0685 44.0503 16.6704 44.0503 14C44.0503 11.3296 44.6925 8.93148 45.9769 6.80556C47.2612 4.67963 49.0305 3.02037 51.2848 1.82778C53.5652 0.609259 56.1208 0 58.9517 0C61.2584 0 63.3553 0.375926 65.2426 1.12778C67.1298 1.87963 68.7156 2.98148 70 4.43333L66.7759 7.54444C64.679 5.47037 62.1496 4.43333 59.1876 4.43333C57.2479 4.43333 55.518 4.83519 53.9977 5.63889C52.5036 6.44259 51.3241 7.57037 50.4591 9.02222C49.6203 10.4741 49.2009 12.1333 49.2009 14C49.2009 15.8148 49.6203 17.4481 50.4591 18.9C51.3241 20.3519 52.5036 21.4926 53.9977 22.3222C55.518 23.1519 57.2348 23.5667 59.1483 23.5667C61.2977 23.5667 63.1849 23.1 64.8101 22.1667V13.6889Z" fill="url(#paint2_linear_11_136)"/>
<defs>
<linearGradient id="paint0_linear_11_136" x1="40.2762" y1="-6.90486" x2="40.2762" y2="34.2451" gradientUnits="userSpaceOnUse">
<stop stop-color="#DABA8A"/>
<stop offset="1" stop-color="#957F71"/>
</linearGradient>
<linearGradient id="paint1_linear_11_136" x1="40.2762" y1="-6.90486" x2="40.2762" y2="34.2451" gradientUnits="userSpaceOnUse">
<stop stop-color="#DABA8A"/>
<stop offset="1" stop-color="#957F71"/>
</linearGradient>
<linearGradient id="paint2_linear_11_136" x1="40.2762" y1="-6.90486" x2="40.2762" y2="34.2451" gradientUnits="userSpaceOnUse">
<stop stop-color="#DABA8A"/>
<stop offset="1" stop-color="#957F71"/>
</linearGradient>
</defs>
</svg>
